<?xml version="1.0" encoding="utf-8"?>
<!-- Generator: Adobe Illustrator 22.1.0, SVG Export Plug-In . SVG Version: 6.00 Build 0)  -->
<svg version="1.1" id="Layer_1" xmlns="http://www.w3.org/2000/svg" xmlns:xlink="http://www.w3.org/1999/xlink" x="0px" y="0px"
	 viewBox="0 0 512 512" style="enable-background:new 0 0 512 512;" xml:space="preserve">
<style type="text/css">
	.st0{fill:#FFFFFF;}
</style>
<g>
	<g>
		<g>
			<path class="st0" d="M426,90C386.9,33.5,324.9,1,256,1S125.1,33.5,86.1,90C47.2,146.3,38.2,217.6,62,280.5
				c6.4,17.2,16.5,33.9,30,49.5l150.4,176.6c3.4,4,8.4,6.3,13.6,6.3s10.2-2.3,13.6-6.3L420,330.1c13.6-15.7,23.7-32.4,30-49.5
				C473.8,217.6,464.8,146.3,426,90z M416.5,268.1c-4.9,13.2-12.8,26.2-23.6,38.7c0,0-0.1,0.1-0.1,0.1L256,467.5L119.2,306.8
				c-10.8-12.5-18.7-25.5-23.7-38.8c-19.7-52.1-12.2-111,20-157.6C147.8,63.6,199,36.8,256,36.8c57,0,108.2,26.8,140.5,73.6
				C428.7,157,436.2,215.9,416.5,268.1z"/>
		</g>
	</g>
	<g>
		<g>
			<path class="st0" d="M256,107.2c-55.3,0-100.3,45-100.3,100.3s45,100.3,100.3,100.3s100.3-45,100.3-100.3
				C356.3,152.2,311.3,107.2,256,107.2z M256,271.9c-35.5,0-64.4-28.9-64.4-64.4S220.5,143,256,143s64.4,28.9,64.4,64.4
				S291.5,271.9,256,271.9z"/>
		</g>
	</g>
</g>
</svg>
