<?xml version="1.0" encoding="utf-8"?>
<!-- Generator: Adobe Illustrator 22.1.0, SVG Export Plug-In . SVG Version: 6.00 Build 0)  -->
<svg version="1.1" id="Layer_1" xmlns="http://www.w3.org/2000/svg" xmlns:xlink="http://www.w3.org/1999/xlink" x="0px" y="0px"
	 viewBox="0 0 512 512" style="enable-background:new 0 0 512 512;" xml:space="preserve">
<style type="text/css">
	.st0{fill:#FFFFFF;}
</style>
<g>
	<path class="st0" d="M302,50.8h-50.2c-6.9,0-12.6,5.6-12.6,12.6c0,6.9,5.6,12.6,12.6,12.6H302c6.9,0,12.6-5.6,12.6-12.6
		C314.6,56.4,309,50.8,302,50.8z"/>
	<path class="st0" d="M356.4,0H155.6c-30.4,0-55.1,24.7-55.1,55.1v401.8c0,30.4,24.7,55.1,55.1,55.1h200.9
		c30.4,0,55.1-24.7,55.1-55.1V55.1C411.6,24.7,386.8,0,356.4,0z M376.6,456.9c0,11.1-9.1,20.2-20.2,20.2H155.6
		c-11.1,0-20.2-9.1-20.2-20.2V55.1c0-11.1,9.1-20.2,20.2-20.2h200.9c11.1,0,20.2,9.1,20.2,20.2V456.9z"/>
	
		<ellipse transform="matrix(0.7071 -0.7071 0.7071 0.7071 -235.5359 309.6395)" class="st0" cx="256" cy="439.1" rx="25.1" ry="25.1"/>
	<circle class="st0" cx="210" cy="63.3" r="12.6"/>
</g>
</svg>
