<?xml version="1.0" encoding="utf-8"?>
<!-- Generator: Adobe Illustrator 22.1.0, SVG Export Plug-In . SVG Version: 6.00 Build 0)  -->
<svg version="1.1" id="Capa_1" xmlns="http://www.w3.org/2000/svg" xmlns:xlink="http://www.w3.org/1999/xlink" x="0px" y="0px"
	 viewBox="0 0 203.7 33.1" style="enable-background:new 0 0 203.7 33.1;" xml:space="preserve">
<style type="text/css">
	.st0{fill:url(#SVGID_1_);}
	.st1{fill:url(#SVGID_2_);}
	.st2{fill:#C03125;}
	.st3{fill:url(#SVGID_3_);}
</style>
<g>
	<g>
		<path d="M53.3,10.5h5.5v8.3h4.5v-8.3h5.5v22.2h-5.5v-8.8h-4.5v8.8h-5.5V10.5z"/>
		<path d="M72.3,27.8c0-3.8,2.8-5.8,10.1-6.2c-0.2-1.2-1.3-1.8-3.1-1.8c-1.3,0-2.7,0.5-4.6,1.4l-1.9-3.8c2.4-1.4,4.9-2.3,7.6-2.3
			c4.5,0,7.5,2.4,7.5,8v9.5h-4.5l-0.4-1.8h-0.1c-1.6,1.2-3.4,2.2-5.4,2.2C74.2,33.1,72.3,30.6,72.3,27.8z M82.4,27.3v-2.2
			c-3.9,0.1-4.9,1.1-4.9,2.3c0,0.8,0.6,1.2,1.7,1.2C80.6,28.6,81.6,28,82.4,27.3z"/>
		<path d="M91.2,30.5l2.3-3.6c2,1.3,4.2,1.9,6.3,1.9c1.4,0,2-0.4,2-1c0-0.8-0.8-1-3.5-1.6c-4.4-1-6-2.8-6-5.5c0-3.3,3-5.5,7.6-5.5
			c3,0,5.4,1.3,7.1,2.4l-2.4,3.5c-1.7-1-3.5-1.6-5.2-1.6c-1,0-1.7,0.3-1.7,1c0,0.8,0.8,0.8,3.3,1.4c4.8,1.2,6.2,2.7,6.2,5.5
			c0,3.2-2.8,5.7-8.2,5.7C96.3,33.1,93.3,31.9,91.2,30.5z"/>
		<path d="M111,8.9h5.5v5.5l-0.3,3h0.1c1-1.1,2.7-2.3,5-2.3c3.5,0,5,2.7,5,7v10.5h-5.5v-9.8c0-1.9-0.4-2.7-1.9-2.7
			c-1,0-1.7,0.5-2.6,1.3v11.2H111V8.9z"/>
		<path d="M131.7,10.2h5.3c4.3,0,6.9,1.7,6.9,5.5c0,2.3-1.2,4.2-3.7,4.9v0.1c3.1,0.5,5,2.3,5,5.4c0,4.3-2.9,6.6-7.8,6.6h-5.7V10.2z
			 M136.5,20.1c4.3,0,6-1.5,6-4.3c0-3-1.9-4.2-5.8-4.2h-3.5v8.5H136.5z M137.1,31.3c4.3,0,6.7-1.6,6.7-5.2c0-3.2-2.4-4.7-6.7-4.7
			h-3.9v9.9H137.1z"/>
		<path d="M150.2,28.6c0-3.7,3.4-5.4,11.8-6.2c0-2.7-1-5.2-4.6-5.2c-2.3,0-4.5,1.3-5.8,2.2l-0.7-1.1c1.2-0.9,3.9-2.4,6.6-2.4
			c4.1,0,5.8,2.8,5.8,6.3v10.5h-1.2l-0.2-2.5h-0.1c-1.8,1.5-4.1,2.9-6.4,2.9C152.8,33.1,150.2,31.7,150.2,28.6z M161.9,28.8v-5.2
			c-7.8,0.7-10.3,2.3-10.3,5c0,2.4,2.1,3.3,4.1,3.3C157.7,31.8,159.7,30.8,161.9,28.8z"/>
		<path d="M169.7,16.3h1.2l0.2,3.1h0.1c1.8-2,3.6-3.6,6-3.6c3.7,0,5.5,2.1,5.5,6.6v10.2h-1.4v-10c0-3.7-1.3-5.4-4.3-5.4
			c-2.2,0-3.7,1.2-5.9,3.7v11.7h-1.4V16.3z"/>
		<path d="M189.5,8.1h1.4v18h0.1l9.8-9.9h1.8L190.9,28v4.7h-1.4V8.1z M195,23.2l0.9-1l7.6,10.6H202L195,23.2z"/>
	</g>
	<linearGradient id="SVGID_1_" gradientUnits="userSpaceOnUse" x1="-0.4352" y1="31.7656" x2="36.0715" y2="5.8496">
		<stop  offset="0" style="stop-color:#283D84"/>
		<stop  offset="1" style="stop-color:#3092BD"/>
	</linearGradient>
	<path class="st0" d="M0.1,27.3v2.6c0,1.6,1.3,2.8,2.8,2.8H4v-5.4H0.1z"/>
	<linearGradient id="SVGID_2_" gradientUnits="userSpaceOnUse" x1="3.7178" y1="37.6157" x2="40.2245" y2="11.6998">
		<stop  offset="0" style="stop-color:#283D84"/>
		<stop  offset="1" style="stop-color:#3092BD"/>
	</linearGradient>
	<path class="st1" d="M10.6,27.3v5.4h7.5c0.1,0,0.1,0,0.2,0v-5.4H10.6z"/>
	<path class="st2" d="M18.3,5.5V0.1c-0.1,0-0.1,0-0.2,0h-7.5v5.5H18.3z"/>
	<rect x="0.1" y="12.4" class="st2" width="3.9" height="6"/>
	<path class="st2" d="M4,0L4,0C1.8,0,0.1,1.8,0.1,4v1.5H4V0z"/>
	<rect x="10.6" y="12.4" class="st2" width="7.7" height="6.1"/>
	<linearGradient id="SVGID_3_" gradientUnits="userSpaceOnUse" x1="2.6821" y1="36.1568" x2="39.1888" y2="10.2408">
		<stop  offset="0" style="stop-color:#283D84"/>
		<stop  offset="1" style="stop-color:#3092BD"/>
	</linearGradient>
	<path class="st3" d="M36,15.6L36,15.6c4-1,6-3.7,6-7.3C42,2,37.3,0,30.7,0h-5.8c-0.2,0-0.4,0-0.6,0h0.6v5.4h4c0,0,1.9,0,1.9,3.5
		c0,3.5-1.9,3.5-1.9,3.5h-4v6h4.7c0,0,2.2,0,2.2,4.4c0,4.4-2.2,4.4-2.2,4.4h-4.7v5.4h8.5c7.4-0.8,9.9-4.8,9.9-9.5
		C43.3,18.8,40.4,16.1,36,15.6z"/>
</g>
</svg>
