<?xml version="1.0" encoding="utf-8"?>
<!-- Generator: Adobe Illustrator 25.2.1, SVG Export Plug-In . SVG Version: 6.00 Build 0)  -->
<svg version="1.1" id="Capa_1" xmlns="http://www.w3.org/2000/svg" xmlns:xlink="http://www.w3.org/1999/xlink" x="0px" y="0px"
	 viewBox="0 0 203.7 30.6" style="enable-background:new 0 0 203.7 30.6;" xml:space="preserve">
<style type="text/css">
	.st0{fill:#1D1D1B;}
	.st1{fill:url(#SVGID_1_);}
	.st2{fill:url(#SVGID_2_);}
	.st3{fill:url(#SVGID_3_);}
	.st4{fill:url(#SVGID_4_);}
	.st5{fill:url(#SVGID_5_);}
	.st6{fill:url(#SVGID_6_);}
	.st7{fill:url(#SVGID_7_);}
</style>
<g>
	<g>
		<path class="st0" d="M41.5,7.8h4.3v6.5h3.5V7.8h4.3v17.3h-4.3v-6.9h-3.5v6.9h-4.3V7.8z"/>
		<path class="st0" d="M56.4,21.3c0-3,2.2-4.5,7.9-4.9c-0.1-1-1-1.4-2.4-1.4c-1,0-2.1,0.4-3.6,1.1l-1.5-3c1.9-1.1,3.8-1.8,5.9-1.8
			c3.5,0,5.8,1.9,5.8,6.2v7.4h-3.5l-0.3-1.4h-0.1c-1.2,1-2.7,1.7-4.2,1.7C57.8,25.4,56.4,23.5,56.4,21.3z M64.3,20.9v-1.7
			c-3,0.1-3.8,0.9-3.8,1.8c0,0.6,0.4,1,1.3,1C62.8,21.9,63.6,21.4,64.3,20.9z"/>
		<path class="st0" d="M71.1,23.4l1.8-2.8c1.6,1,3.3,1.5,4.9,1.5c1.1,0,1.5-0.3,1.5-0.8c0-0.6-0.6-0.7-2.7-1.2
			c-3.4-0.8-4.7-2.2-4.7-4.3c0-2.6,2.3-4.3,5.9-4.3c2.3,0,4.2,1,5.5,1.9L81.5,16c-1.3-0.8-2.7-1.2-4-1.2c-0.8,0-1.3,0.3-1.3,0.7
			c0,0.6,0.6,0.6,2.6,1.1c3.7,0.9,4.8,2.1,4.8,4.3c0,2.5-2.2,4.4-6.4,4.4C75.1,25.4,72.7,24.5,71.1,23.4z"/>
		<path class="st0" d="M86.5,6.6h4.3v4.3l-0.2,2.3h0.1c0.8-0.9,2.1-1.8,3.9-1.8c2.7,0,3.9,2.1,3.9,5.4v8.2h-4.3v-7.6
			c0-1.5-0.3-2.1-1.4-2.1c-0.8,0-1.3,0.4-2,1v8.7h-4.3V6.6z"/>
		<path class="st0" d="M105.2,11.6h-4.7V7.8h13.6v3.8h-4.7v13.5h-4.3V11.6z"/>
		<path class="st0" d="M116.2,21.3c0-3,2.2-4.5,7.9-4.9c-0.1-1-1-1.4-2.4-1.4c-1,0-2.1,0.4-3.6,1.1l-1.5-3c1.9-1.1,3.8-1.8,5.9-1.8
			c3.5,0,5.8,1.9,5.8,6.2v7.4h-3.5l-0.3-1.4h-0.1c-1.2,1-2.7,1.7-4.2,1.7C117.6,25.4,116.2,23.5,116.2,21.3z M124.1,20.9v-1.7
			c-3,0.1-3.8,0.9-3.8,1.8c0,0.6,0.4,1,1.3,1C122.6,21.9,123.4,21.4,124.1,20.9z"/>
		<path class="st0" d="M130.9,27.3c0-1.1,0.6-1.9,1.9-2.6v-0.1c-0.7-0.5-1.2-1.2-1.2-2.3c0-0.9,0.6-1.9,1.5-2.5v-0.1
			c-0.9-0.6-1.7-1.9-1.7-3.4c0-3.3,2.6-4.9,5.5-4.9c0.7,0,1.5,0.1,2.1,0.3h5v3.3h-2.2c0.2,0.3,0.3,0.9,0.3,1.4
			c0,3.1-2.3,4.4-5.3,4.4c-0.4,0-1-0.1-1.6-0.2c-0.3,0.2-0.4,0.4-0.4,0.8c0,0.6,0.5,0.8,1.9,0.8h2.1c3.3,0,5.2,1,5.2,3.5
			c0,2.9-3,4.9-7.6,4.9C133.4,30.6,130.9,29.7,130.9,27.3z M140.1,26.6c0-0.7-0.7-0.8-1.9-0.8h-1.2c-1,0-1.5-0.1-1.9-0.2
			c-0.4,0.3-0.6,0.6-0.6,1c0,0.9,1.1,1.2,2.8,1.2C138.9,27.8,140.1,27.3,140.1,26.6z M138.4,16.3c0-1.2-0.7-1.8-1.5-1.8
			c-0.8,0-1.5,0.6-1.5,1.8c0,1.3,0.7,1.9,1.5,1.9C137.7,18.2,138.4,17.6,138.4,16.3z"/>
		<path class="st0" d="M147.6,7.5h4.2c3.4,0,5.4,1.3,5.4,4.3c0,1.8-1,3.3-2.9,3.8v0.1c2.4,0.4,3.9,1.8,3.9,4.2
			c0,3.4-2.3,5.1-6.1,5.1h-4.5V7.5z M151.3,15.3c3.4,0,4.7-1.2,4.7-3.4c0-2.3-1.5-3.3-4.6-3.3h-2.7v6.7H151.3z M151.8,24.1
			c3.3,0,5.2-1.2,5.2-4.1c0-2.5-1.9-3.7-5.2-3.7h-3v7.8H151.8z"/>
		<path class="st0" d="M162,21.9c0-2.9,2.7-4.2,9.2-4.8c0-2.1-0.8-4.1-3.6-4.1c-1.8,0-3.6,1-4.5,1.7l-0.5-0.9c1-0.7,3-1.9,5.2-1.9
			c3.2,0,4.5,2.2,4.5,4.9v8.2h-0.9l-0.1-1.9h-0.1c-1.4,1.2-3.2,2.2-5,2.2C164,25.4,162,24.3,162,21.9z M171.2,22.1V18
			c-6.1,0.6-8,1.8-8,3.9c0,1.8,1.6,2.5,3.2,2.5C167.9,24.4,169.5,23.6,171.2,22.1z"/>
		<path class="st0" d="M177.3,12.3h0.9l0.1,2.5h0.1c1.4-1.6,2.8-2.8,4.7-2.8c2.9,0,4.3,1.7,4.3,5.1v8h-1.1v-7.8c0-2.9-1-4.2-3.4-4.2
			c-1.7,0-2.9,0.9-4.6,2.9v9.2h-1.1V12.3z"/>
		<path class="st0" d="M192.7,5.9h1.1V20h0.1l7.7-7.7h1.4l-9.2,9.2v3.6h-1.1V5.9z M197.1,17.7l0.7-0.8l6,8.2h-1.3L197.1,17.7z"/>
	</g>
	<linearGradient id="SVGID_1_" gradientUnits="userSpaceOnUse" x1="1.9734" y1="28.2363" x2="30.4829" y2="7.9975">
		<stop  offset="0" style="stop-color:#363883"/>
		<stop  offset="1" style="stop-color:#0094BF"/>
	</linearGradient>
	<path class="st1" d="M28,12.2L28,12.2c3.1-0.8,4.7-2.9,4.7-5.7C32.7,1.6,29,0,23.9,0h-4.5c-0.2,0-0.3,0-0.5,0h0.4v4.2h3.1
		c0,0,1.5,0,1.5,2.7c0,2.7-1.5,2.7-1.5,2.7h-3.1v4.7H23c0,0,1.8,0,1.8,3.5c0,3.5-1.8,3.5-1.8,3.5h-3.7v4.2H26
		c5.8-0.6,7.7-3.8,7.7-7.4C33.7,14.7,31.4,12.6,28,12.2z"/>
	<linearGradient id="SVGID_2_" gradientUnits="userSpaceOnUse" x1="-7.2509" y1="15.2423" x2="21.2586" y2="-4.9964">
		<stop  offset="0" style="stop-color:#363883"/>
		<stop  offset="1" style="stop-color:#0094BF"/>
	</linearGradient>
	<path class="st2" d="M14.2,4.3V0c0,0-0.1,0-0.1,0H8.2v4.3H14.2z"/>
	<linearGradient id="SVGID_3_" gradientUnits="userSpaceOnUse" x1="-2.5919" y1="21.8052" x2="25.9175" y2="1.5664">
		<stop  offset="0" style="stop-color:#363883"/>
		<stop  offset="1" style="stop-color:#0094BF"/>
	</linearGradient>
	<rect x="8.2" y="9.7" class="st3" width="6" height="4.7"/>
	<linearGradient id="SVGID_4_" gradientUnits="userSpaceOnUse" x1="2.7823" y1="29.3756" x2="31.2917" y2="9.1368">
		<stop  offset="0" style="stop-color:#363883"/>
		<stop  offset="1" style="stop-color:#0094BF"/>
	</linearGradient>
	<path class="st4" d="M8.2,21.3v4.2H14c0,0,0.1,0,0.1,0v-4.2H8.2z"/>
	<linearGradient id="SVGID_5_" gradientUnits="userSpaceOnUse" x1="-10.1497" y1="11.1589" x2="18.3597" y2="-9.0799">
		<stop  offset="0" style="stop-color:#363883"/>
		<stop  offset="1" style="stop-color:#0094BF"/>
	</linearGradient>
	<path class="st5" d="M3,0L3,0C1.3,0-0.1,1.4-0.1,3.1v1.2H3V0z"/>
	<linearGradient id="SVGID_6_" gradientUnits="userSpaceOnUse" x1="-5.8423" y1="17.2266" x2="22.6671" y2="-3.0122">
		<stop  offset="0" style="stop-color:#363883"/>
		<stop  offset="1" style="stop-color:#0094BF"/>
	</linearGradient>
	<rect x="-0.1" y="9.7" class="st6" width="3.1" height="4.7"/>
	<linearGradient id="SVGID_7_" gradientUnits="userSpaceOnUse" x1="-0.461" y1="24.807" x2="28.0485" y2="4.5682">
		<stop  offset="0" style="stop-color:#363883"/>
		<stop  offset="1" style="stop-color:#0094BF"/>
	</linearGradient>
	<path class="st7" d="M-0.1,21.3v2c0,1.2,1,2.2,2.2,2.2H3v-4.2H-0.1z"/>
</g>
</svg>
