<?xml version="1.0" encoding="utf-8"?>
<!-- Generator: Adobe Illustrator 25.2.1, SVG Export Plug-In . SVG Version: 6.00 Build 0)  -->
<svg version="1.1" id="Capa_1" xmlns="http://www.w3.org/2000/svg" xmlns:xlink="http://www.w3.org/1999/xlink" x="0px" y="0px"
	 viewBox="0 0 203.7 33.1" style="enable-background:new 0 0 203.7 33.1;" xml:space="preserve">
<style type="text/css">
	.st0{fill:#FFFFFF;}
</style>
<g>
	<g>
		<path class="st0" d="M41.6,9h4.3v6.4h3.5V9h4.3v17.3h-4.3v-6.9h-3.5v6.9h-4.3V9z"/>
		<path class="st0" d="M56.4,22.6c0-3,2.2-4.5,7.9-4.9c-0.1-1-1-1.4-2.4-1.4c-1,0-2.1,0.4-3.6,1.1l-1.5-3c1.9-1.1,3.8-1.8,5.9-1.8
			c3.5,0,5.8,1.9,5.8,6.2v7.4h-3.5L64.8,25h-0.1c-1.2,1-2.7,1.7-4.2,1.7C57.8,26.7,56.4,24.8,56.4,22.6z M64.3,22.1v-1.7
			c-3,0.1-3.8,0.9-3.8,1.8c0,0.6,0.4,1,1.3,1C62.8,23.2,63.6,22.7,64.3,22.1z"/>
		<path class="st0" d="M71.2,24.7l1.8-2.8c1.6,1,3.3,1.5,4.9,1.5c1.1,0,1.5-0.3,1.5-0.8c0-0.6-0.6-0.7-2.7-1.2
			c-3.4-0.8-4.7-2.2-4.7-4.3c0-2.6,2.3-4.3,5.9-4.3c2.3,0,4.2,1,5.5,1.9l-1.9,2.7c-1.3-0.8-2.7-1.2-4-1.2c-0.8,0-1.3,0.3-1.3,0.7
			c0,0.6,0.6,0.6,2.6,1.1c3.7,0.9,4.8,2.1,4.8,4.3c0,2.5-2.2,4.4-6.4,4.4C75.1,26.7,72.7,25.8,71.2,24.7z"/>
		<path class="st0" d="M86.5,7.8h4.3v4.3l-0.2,2.3h0.1c0.8-0.9,2.1-1.8,3.9-1.8c2.7,0,3.9,2.1,3.9,5.4v8.2h-4.3v-7.6
			c0-1.5-0.3-2.1-1.4-2.1c-0.8,0-1.3,0.4-2,1v8.7h-4.3V7.8z"/>
		<path class="st0" d="M105.2,12.9h-4.7V9h13.6v3.8h-4.7v13.5h-4.3V12.9z"/>
		<path class="st0" d="M116.2,22.6c0-3,2.2-4.5,7.9-4.9c-0.1-1-1-1.4-2.4-1.4c-1,0-2.1,0.4-3.6,1.1l-1.5-3c1.9-1.1,3.8-1.8,5.9-1.8
			c3.5,0,5.8,1.9,5.8,6.2v7.4h-3.5l-0.3-1.4h-0.1c-1.2,1-2.7,1.7-4.2,1.7C117.6,26.7,116.2,24.8,116.2,22.6z M124.1,22.1v-1.7
			c-3,0.1-3.8,0.9-3.8,1.8c0,0.6,0.4,1,1.3,1C122.6,23.2,123.4,22.7,124.1,22.1z"/>
		<path class="st0" d="M130.9,28.5c0-1.1,0.6-1.9,1.9-2.6v-0.1c-0.7-0.5-1.2-1.2-1.2-2.3c0-0.9,0.6-1.9,1.5-2.5V21
			c-0.9-0.6-1.7-1.9-1.7-3.4c0-3.3,2.6-4.9,5.5-4.9c0.7,0,1.5,0.1,2.1,0.3h5v3.3h-2.2c0.2,0.3,0.3,0.9,0.3,1.4
			c0,3.1-2.3,4.4-5.3,4.4c-0.4,0-1-0.1-1.6-0.2c-0.3,0.2-0.4,0.4-0.4,0.8c0,0.6,0.5,0.8,1.9,0.8h2.1c3.3,0,5.2,1,5.2,3.5
			c0,2.9-3,4.9-7.6,4.9C133.4,31.8,130.9,30.9,130.9,28.5z M140.1,27.8c0-0.7-0.7-0.8-1.9-0.8h-1.2c-1,0-1.5-0.1-1.9-0.2
			c-0.4,0.3-0.6,0.6-0.6,1c0,0.9,1.1,1.2,2.8,1.2C138.8,29,140.1,28.5,140.1,27.8z M138.4,17.6c0-1.2-0.7-1.8-1.5-1.8
			c-0.8,0-1.5,0.6-1.5,1.8c0,1.3,0.7,1.9,1.5,1.9C137.7,19.4,138.4,18.8,138.4,17.6z"/>
		<path class="st0" d="M147.6,8.8h4.2c3.4,0,5.4,1.3,5.4,4.3c0,1.8-1,3.3-2.9,3.8V17c2.4,0.4,3.9,1.8,3.9,4.2c0,3.4-2.3,5.1-6.1,5.1
			h-4.5V8.8z M151.3,16.5c3.4,0,4.7-1.2,4.7-3.4c0-2.3-1.5-3.3-4.6-3.3h-2.7v6.7H151.3z M151.8,25.3c3.3,0,5.2-1.2,5.2-4.1
			c0-2.5-1.9-3.7-5.2-3.7h-3v7.8H151.8z"/>
		<path class="st0" d="M162,23.2c0-2.9,2.7-4.2,9.2-4.8c0-2.1-0.8-4.1-3.6-4.1c-1.8,0-3.5,1-4.5,1.7l-0.5-0.9c1-0.7,3-1.9,5.2-1.9
			c3.2,0,4.5,2.2,4.5,4.9v8.2h-0.9l-0.1-1.9h-0.1c-1.4,1.2-3.2,2.2-5,2.2C164,26.7,162,25.6,162,23.2z M171.1,23.3v-4.1
			c-6.1,0.6-8,1.8-8,3.9c0,1.8,1.6,2.5,3.2,2.5C167.9,25.6,169.5,24.9,171.1,23.3z"/>
		<path class="st0" d="M177.3,13.6h0.9l0.1,2.5h0.1c1.4-1.6,2.8-2.8,4.7-2.8c2.9,0,4.3,1.7,4.3,5.1v8h-1.1v-7.8c0-2.9-1-4.2-3.4-4.2
			c-1.7,0-2.9,0.9-4.6,2.9v9.2h-1.1V13.6z"/>
		<path class="st0" d="M192.7,7.2h1.1v14.1h0.1l7.7-7.7h1.4l-9.1,9.2v3.6h-1.1V7.2z M197,18.9l0.7-0.8l6,8.2h-1.3L197,18.9z"/>
	</g>
	<path class="st0" d="M28,13.4L28,13.4c3.1-0.8,4.7-2.9,4.7-5.7c0-4.9-3.7-6.5-8.8-6.5h-4.5c-0.2,0-0.3,0-0.5,0h0.4v4.2h3.1
		c0,0,1.5,0,1.5,2.7c0,2.7-1.5,2.7-1.5,2.7h-3.1v4.7H23c0,0,1.8,0,1.8,3.5c0,3.5-1.8,3.5-1.8,3.5h-3.7v4.2H26
		c5.8-0.6,7.7-3.8,7.7-7.4C33.7,16,31.5,13.8,28,13.4z"/>
	<path class="st0" d="M14.2,5.5V1.3c0,0-0.1,0-0.1,0H8.2v4.3H14.2z"/>
	<rect x="8.2" y="10.9" class="st0" width="6" height="4.7"/>
	<path class="st0" d="M8.2,22.6v4.2h5.9c0,0,0.1,0,0.1,0v-4.2H8.2z"/>
	<path class="st0" d="M3.1,1.3L3.1,1.3C1.4,1.3,0,2.7,0,4.4v1.2h3.1V1.3z"/>
	<rect y="10.9" class="st0" width="3.1" height="4.7"/>
	<path class="st0" d="M0,22.6v2c0,1.2,1,2.2,2.2,2.2h0.9v-4.2H0z"/>
</g>
</svg>
